<?xml version="1.0" encoding="UTF-8"?>
<svg width="200" height="60" viewBox="0 0 200 60" xmlns="http://www.w3.org/2000/svg">
  <!-- ACODIKE Logo -->
  <g fill="#E62222">
    <path d="M20.5,45 L10,15 L16,15 L23,37 L30,15 L36,15 L25.5,45 L20.5,45 Z"/>
    <path d="M46,45 C40,45 35,40 35,34 C35,28 40,23 46,23 C52,23 57,28 57,34 C57,40 52,45 46,45 Z M46,39 C48.5,39 51,37 51,34 C51,31 48.5,29 46,29 C43.5,29 41,31 41,34 C41,37 43.5,39 46,39 Z"/>
    <path d="M68,45 L59,24 L65,24 L70.5,38 L76,24 L82,24 L73,45 L68,45 Z"/>
    <path d="M83,45 L83,24 L89,24 L89,45 L83,45 Z M83,21 L83,15 L89,15 L89,21 L83,21 Z"/>
    <path d="M92,45 L92,24 L98,24 L98,27 C99.5,24.5 102,23.5 104.5,23.5 C109.5,23.5 113,27.5 113,33.5 C113,39.5 109.5,43.5 104.5,43.5 C102,43.5 99.5,42.5 98,40 L98,45 L92,45 Z M103,38 C105.5,38 107,36 107,33.5 C107,31 105.5,29 103,29 C100.5,29 99,31 99,33.5 C99,36 100.5,38 103,38 Z"/>
    <path d="M124,45 L115,24 L121,24 L126.5,38 L132,24 L138,24 L129,45 L124,45 Z"/>
    <path d="M149,45 L140,24 L146,24 L151.5,38 L157,24 L163,24 L154,45 L149,45 Z"/>
  </g>
  <!-- Supergas text -->
  <text x="170" y="38" font-family="Arial, sans-serif" font-size="12" font-weight="bold" fill="#FFD700">SUPERGAS</text>
  <!-- Yellow flame shape -->
  <path d="M180,15 C185,5 190,10 190,15 C195,5 200,15 195,20 C200,25 190,35 180,25 C170,35 160,25 165,20 C160,15 165,5 170,15 C170,10 175,5 180,15 Z" fill="#FFD700"/>
</svg>
